<svg xmlns="http://www.w3.org/2000/svg" viewBox="0 0 80 80" width="80" height="80">
  <!-- Navy background rounded square -->
  <rect width="80" height="80" rx="14" fill="#1e2d6e"/>

  <!-- Teal book pages -->
  <path d="M14 52 Q40 44 40 44 Q40 44 66 52 L66 62 Q40 54 40 54 Q40 54 14 62 Z" fill="#2ab5b0"/>
  <!-- Book spine -->
  <rect x="38.5" y="44" width="3" height="18" fill="#ffffff" opacity="0.4"/>

  <!-- V chevron (white) -->
  <path d="M28 43 L40 54 L52 43 L49 40 L40 50 L31 40 Z" fill="#ffffff"/>

  <!-- Head -->
  <circle cx="40" cy="28" r="9" fill="#ffffff"/>
  <!-- Cap -->
  <rect x="32" y="22" width="16" height="6" rx="2" fill="#ffffff"/>
  <!-- Cross -->
  <rect x="38.5" y="20" width="3" height="10" rx="1" fill="#1e2d6e"/>
  <rect x="35" y="23" width="10" height="3" rx="1" fill="#1e2d6e"/>

  <!-- Body teal -->
  <ellipse cx="40" cy="40" rx="9" ry="8" fill="#2ab5b0"/>
</svg>